<?xml version="1.0" encoding="UTF-8" standalone="no"?>
<!DOCTYPE svg PUBLIC "-//W3C//DTD SVG 1.1//EN"
 "http://www.w3.org/Graphics/SVG/1.1/DTD/svg11.dtd">
<!-- Generated by graphviz version 2.43.0 (0)
 -->
<!-- Title: G Pages: 1 -->
<svg width="461pt" height="2130pt"
 viewBox="0.00 0.00 461.00 2130.00" xmlns="http://www.w3.org/2000/svg" xmlns:xlink="http://www.w3.org/1999/xlink">
<g id="graph0" class="graph" transform="scale(1 1) rotate(0) translate(4 2126)">
<title>G</title>
<polygon fill="white" stroke="transparent" points="-4,4 -4,-2126 457,-2126 457,4 -4,4"/>
<!-- 139769267831248 -->
<g id="node1" class="node">
<title>139769267831248</title>
<polygon fill="none" stroke="black" points="36,-2075.5 36,-2121.5 417,-2121.5 417,-2075.5 36,-2075.5"/>
<text text-anchor="middle" x="115" y="-2094.8" font-family="Times,serif" font-size="14.00">input_1: InputLayer</text>
<polyline fill="none" stroke="black" points="194,-2075.5 194,-2121.5 "/>
<text text-anchor="middle" x="228" y="-2106.3" font-family="Times,serif" font-size="14.00">input:</text>
<polyline fill="none" stroke="black" points="194,-2098.5 262,-2098.5 "/>
<text text-anchor="middle" x="228" y="-2083.3" font-family="Times,serif" font-size="14.00">output:</text>
<polyline fill="none" stroke="black" points="262,-2075.5 262,-2121.5 "/>
<text text-anchor="middle" x="339.5" y="-2106.3" font-family="Times,serif" font-size="14.00">(None, 224, 224, 3)</text>
<polyline fill="none" stroke="black" points="262,-2098.5 417,-2098.5 "/>
<text text-anchor="middle" x="339.5" y="-2083.3" font-family="Times,serif" font-size="14.00">(None, 224, 224, 3)</text>
</g>
<!-- 139766519395216 -->
<g id="node2" class="node">
<title>139766519395216</title>
<polygon fill="none" stroke="black" points="22,-1992.5 22,-2038.5 431,-2038.5 431,-1992.5 22,-1992.5"/>
<text text-anchor="middle" x="110.5" y="-2011.8" font-family="Times,serif" font-size="14.00">block1_conv1: Conv2D</text>
<polyline fill="none" stroke="black" points="199,-1992.5 199,-2038.5 "/>
<text text-anchor="middle" x="233" y="-2023.3" font-family="Times,serif" font-size="14.00">input:</text>
<polyline fill="none" stroke="black" points="199,-2015.5 267,-2015.5 "/>
<text text-anchor="middle" x="233" y="-2000.3" font-family="Times,serif" font-size="14.00">output:</text>
<polyline fill="none" stroke="black" points="267,-1992.5 267,-2038.5 "/>
<text text-anchor="middle" x="349" y="-2023.3" font-family="Times,serif" font-size="14.00">(None, 224, 224, 3)</text>
<polyline fill="none" stroke="black" points="267,-2015.5 431,-2015.5 "/>
<text text-anchor="middle" x="349" y="-2000.3" font-family="Times,serif" font-size="14.00">(None, 224, 224, 64)</text>
</g>
<!-- 139769267831248&#45;&gt;139766519395216 -->
<g id="edge1" class="edge">
<title>139769267831248&#45;&gt;139766519395216</title>
<path fill="none" stroke="black" d="M226.5,-2075.37C226.5,-2067.15 226.5,-2057.66 226.5,-2048.73"/>
<polygon fill="black" stroke="black" points="230,-2048.61 226.5,-2038.61 223,-2048.61 230,-2048.61"/>
</g>
<!-- 139766519395888 -->
<g id="node3" class="node">
<title>139766519395888</title>
<polygon fill="none" stroke="black" points="22,-1909.5 22,-1955.5 431,-1955.5 431,-1909.5 22,-1909.5"/>
<text text-anchor="middle" x="110.5" y="-1928.8" font-family="Times,serif" font-size="14.00">block1_conv2: Conv2D</text>
<polyline fill="none" stroke="black" points="199,-1909.5 199,-1955.5 "/>
<text text-anchor="middle" x="233" y="-1940.3" font-family="Times,serif" font-size="14.00">input:</text>
<polyline fill="none" stroke="black" points="199,-1932.5 267,-1932.5 "/>
<text text-anchor="middle" x="233" y="-1917.3" font-family="Times,serif" font-size="14.00">output:</text>
<polyline fill="none" stroke="black" points="267,-1909.5 267,-1955.5 "/>
<text text-anchor="middle" x="349" y="-1940.3" font-family="Times,serif" font-size="14.00">(None, 224, 224, 64)</text>
<polyline fill="none" stroke="black" points="267,-1932.5 431,-1932.5 "/>
<text text-anchor="middle" x="349" y="-1917.3" font-family="Times,serif" font-size="14.00">(None, 224, 224, 64)</text>
</g>
<!-- 139766519395216&#45;&gt;139766519395888 -->
<g id="edge2" class="edge">
<title>139766519395216&#45;&gt;139766519395888</title>
<path fill="none" stroke="black" d="M226.5,-1992.37C226.5,-1984.15 226.5,-1974.66 226.5,-1965.73"/>
<polygon fill="black" stroke="black" points="230,-1965.61 226.5,-1955.61 223,-1965.61 230,-1965.61"/>
</g>
<!-- 139766519395608 -->
<g id="node4" class="node">
<title>139766519395608</title>
<polygon fill="none" stroke="black" points="4.5,-1826.5 4.5,-1872.5 448.5,-1872.5 448.5,-1826.5 4.5,-1826.5"/>
<text text-anchor="middle" x="110.5" y="-1845.8" font-family="Times,serif" font-size="14.00">block1_pool: MaxPooling2D</text>
<polyline fill="none" stroke="black" points="216.5,-1826.5 216.5,-1872.5 "/>
<text text-anchor="middle" x="250.5" y="-1857.3" font-family="Times,serif" font-size="14.00">input:</text>
<polyline fill="none" stroke="black" points="216.5,-1849.5 284.5,-1849.5 "/>
<text text-anchor="middle" x="250.5" y="-1834.3" font-family="Times,serif" font-size="14.00">output:</text>
<polyline fill="none" stroke="black" points="284.5,-1826.5 284.5,-1872.5 "/>
<text text-anchor="middle" x="366.5" y="-1857.3" font-family="Times,serif" font-size="14.00">(None, 224, 224, 64)</text>
<polyline fill="none" stroke="black" points="284.5,-1849.5 448.5,-1849.5 "/>
<text text-anchor="middle" x="366.5" y="-1834.3" font-family="Times,serif" font-size="14.00">(None, 112, 112, 64)</text>
</g>
<!-- 139766519395888&#45;&gt;139766519395608 -->
<g id="edge3" class="edge">
<title>139766519395888&#45;&gt;139766519395608</title>
<path fill="none" stroke="black" d="M226.5,-1909.37C226.5,-1901.15 226.5,-1891.66 226.5,-1882.73"/>
<polygon fill="black" stroke="black" points="230,-1882.61 226.5,-1872.61 223,-1882.61 230,-1882.61"/>
</g>
<!-- 139766510668264 -->
<g id="node5" class="node">
<title>139766510668264</title>
<polygon fill="none" stroke="black" points="17.5,-1743.5 17.5,-1789.5 435.5,-1789.5 435.5,-1743.5 17.5,-1743.5"/>
<text text-anchor="middle" x="106" y="-1762.8" font-family="Times,serif" font-size="14.00">block2_conv1: Conv2D</text>
<polyline fill="none" stroke="black" points="194.5,-1743.5 194.5,-1789.5 "/>
<text text-anchor="middle" x="228.5" y="-1774.3" font-family="Times,serif" font-size="14.00">input:</text>
<polyline fill="none" stroke="black" points="194.5,-1766.5 262.5,-1766.5 "/>
<text text-anchor="middle" x="228.5" y="-1751.3" font-family="Times,serif" font-size="14.00">output:</text>
<polyline fill="none" stroke="black" points="262.5,-1743.5 262.5,-1789.5 "/>
<text text-anchor="middle" x="349" y="-1774.3" font-family="Times,serif" font-size="14.00">(None, 112, 112, 64)</text>
<polyline fill="none" stroke="black" points="262.5,-1766.5 435.5,-1766.5 "/>
<text text-anchor="middle" x="349" y="-1751.3" font-family="Times,serif" font-size="14.00">(None, 112, 112, 128)</text>
</g>
<!-- 139766519395608&#45;&gt;139766510668264 -->
<g id="edge4" class="edge">
<title>139766519395608&#45;&gt;139766510668264</title>
<path fill="none" stroke="black" d="M226.5,-1826.37C226.5,-1818.15 226.5,-1808.66 226.5,-1799.73"/>
<polygon fill="black" stroke="black" points="230,-1799.61 226.5,-1789.61 223,-1799.61 230,-1799.61"/>
</g>
<!-- 139766510669664 -->
<g id="node6" class="node">
<title>139766510669664</title>
<polygon fill="none" stroke="black" points="17.5,-1660.5 17.5,-1706.5 435.5,-1706.5 435.5,-1660.5 17.5,-1660.5"/>
<text text-anchor="middle" x="106" y="-1679.8" font-family="Times,serif" font-size="14.00">block2_conv2: Conv2D</text>
<polyline fill="none" stroke="black" points="194.5,-1660.5 194.5,-1706.5 "/>
<text text-anchor="middle" x="228.5" y="-1691.3" font-family="Times,serif" font-size="14.00">input:</text>
<polyline fill="none" stroke="black" points="194.5,-1683.5 262.5,-1683.5 "/>
<text text-anchor="middle" x="228.5" y="-1668.3" font-family="Times,serif" font-size="14.00">output:</text>
<polyline fill="none" stroke="black" points="262.5,-1660.5 262.5,-1706.5 "/>
<text text-anchor="middle" x="349" y="-1691.3" font-family="Times,serif" font-size="14.00">(None, 112, 112, 128)</text>
<polyline fill="none" stroke="black" points="262.5,-1683.5 435.5,-1683.5 "/>
<text text-anchor="middle" x="349" y="-1668.3" font-family="Times,serif" font-size="14.00">(None, 112, 112, 128)</text>
</g>
<!-- 139766510668264&#45;&gt;139766510669664 -->
<g id="edge5" class="edge">
<title>139766510668264&#45;&gt;139766510669664</title>
<path fill="none" stroke="black" d="M226.5,-1743.37C226.5,-1735.15 226.5,-1725.66 226.5,-1716.73"/>
<polygon fill="black" stroke="black" points="230,-1716.61 226.5,-1706.61 223,-1716.61 230,-1716.61"/>
</g>
<!-- 139766510864424 -->
<g id="node7" class="node">
<title>139766510864424</title>
<polygon fill="none" stroke="black" points="0,-1577.5 0,-1623.5 453,-1623.5 453,-1577.5 0,-1577.5"/>
<text text-anchor="middle" x="106" y="-1596.8" font-family="Times,serif" font-size="14.00">block2_pool: MaxPooling2D</text>
<polyline fill="none" stroke="black" points="212,-1577.5 212,-1623.5 "/>
<text text-anchor="middle" x="246" y="-1608.3" font-family="Times,serif" font-size="14.00">input:</text>
<polyline fill="none" stroke="black" points="212,-1600.5 280,-1600.5 "/>
<text text-anchor="middle" x="246" y="-1585.3" font-family="Times,serif" font-size="14.00">output:</text>
<polyline fill="none" stroke="black" points="280,-1577.5 280,-1623.5 "/>
<text text-anchor="middle" x="366.5" y="-1608.3" font-family="Times,serif" font-size="14.00">(None, 112, 112, 128)</text>
<polyline fill="none" stroke="black" points="280,-1600.5 453,-1600.5 "/>
<text text-anchor="middle" x="366.5" y="-1585.3" font-family="Times,serif" font-size="14.00">(None, 56, 56, 128)</text>
</g>
<!-- 139766510669664&#45;&gt;139766510864424 -->
<g id="edge6" class="edge">
<title>139766510669664&#45;&gt;139766510864424</title>
<path fill="none" stroke="black" d="M226.5,-1660.37C226.5,-1652.15 226.5,-1642.66 226.5,-1633.73"/>
<polygon fill="black" stroke="black" points="230,-1633.61 226.5,-1623.61 223,-1633.61 230,-1633.61"/>
</g>
<!-- 139766510407752 -->
<g id="node8" class="node">
<title>139766510407752</title>
<polygon fill="none" stroke="black" points="26.5,-1494.5 26.5,-1540.5 426.5,-1540.5 426.5,-1494.5 26.5,-1494.5"/>
<text text-anchor="middle" x="115" y="-1513.8" font-family="Times,serif" font-size="14.00">block3_conv1: Conv2D</text>
<polyline fill="none" stroke="black" points="203.5,-1494.5 203.5,-1540.5 "/>
<text text-anchor="middle" x="237.5" y="-1525.3" font-family="Times,serif" font-size="14.00">input:</text>
<polyline fill="none" stroke="black" points="203.5,-1517.5 271.5,-1517.5 "/>
<text text-anchor="middle" x="237.5" y="-1502.3" font-family="Times,serif" font-size="14.00">output:</text>
<polyline fill="none" stroke="black" points="271.5,-1494.5 271.5,-1540.5 "/>
<text text-anchor="middle" x="349" y="-1525.3" font-family="Times,serif" font-size="14.00">(None, 56, 56, 128)</text>
<polyline fill="none" stroke="black" points="271.5,-1517.5 426.5,-1517.5 "/>
<text text-anchor="middle" x="349" y="-1502.3" font-family="Times,serif" font-size="14.00">(None, 56, 56, 256)</text>
</g>
<!-- 139766510864424&#45;&gt;139766510407752 -->
<g id="edge7" class="edge">
<title>139766510864424&#45;&gt;139766510407752</title>
<path fill="none" stroke="black" d="M226.5,-1577.37C226.5,-1569.15 226.5,-1559.66 226.5,-1550.73"/>
<polygon fill="black" stroke="black" points="230,-1550.61 226.5,-1540.61 223,-1550.61 230,-1550.61"/>
</g>
<!-- 139766510535400 -->
<g id="node9" class="node">
<title>139766510535400</title>
<polygon fill="none" stroke="black" points="26.5,-1411.5 26.5,-1457.5 426.5,-1457.5 426.5,-1411.5 26.5,-1411.5"/>
<text text-anchor="middle" x="115" y="-1430.8" font-family="Times,serif" font-size="14.00">block3_conv2: Conv2D</text>
<polyline fill="none" stroke="black" points="203.5,-1411.5 203.5,-1457.5 "/>
<text text-anchor="middle" x="237.5" y="-1442.3" font-family="Times,serif" font-size="14.00">input:</text>
<polyline fill="none" stroke="black" points="203.5,-1434.5 271.5,-1434.5 "/>
<text text-anchor="middle" x="237.5" y="-1419.3" font-family="Times,serif" font-size="14.00">output:</text>
<polyline fill="none" stroke="black" points="271.5,-1411.5 271.5,-1457.5 "/>
<text text-anchor="middle" x="349" y="-1442.3" font-family="Times,serif" font-size="14.00">(None, 56, 56, 256)</text>
<polyline fill="none" stroke="black" points="271.5,-1434.5 426.5,-1434.5 "/>
<text text-anchor="middle" x="349" y="-1419.3" font-family="Times,serif" font-size="14.00">(None, 56, 56, 256)</text>
</g>
<!-- 139766510407752&#45;&gt;139766510535400 -->
<g id="edge8" class="edge">
<title>139766510407752&#45;&gt;139766510535400</title>
<path fill="none" stroke="black" d="M226.5,-1494.37C226.5,-1486.15 226.5,-1476.66 226.5,-1467.73"/>
<polygon fill="black" stroke="black" points="230,-1467.61 226.5,-1457.61 223,-1467.61 230,-1467.61"/>
</g>
<!-- 139766510537472 -->
<g id="node10" class="node">
<title>139766510537472</title>
<polygon fill="none" stroke="black" points="26.5,-1328.5 26.5,-1374.5 426.5,-1374.5 426.5,-1328.5 26.5,-1328.5"/>
<text text-anchor="middle" x="115" y="-1347.8" font-family="Times,serif" font-size="14.00">block3_conv3: Conv2D</text>
<polyline fill="none" stroke="black" points="203.5,-1328.5 203.5,-1374.5 "/>
<text text-anchor="middle" x="237.5" y="-1359.3" font-family="Times,serif" font-size="14.00">input:</text>
<polyline fill="none" stroke="black" points="203.5,-1351.5 271.5,-1351.5 "/>
<text text-anchor="middle" x="237.5" y="-1336.3" font-family="Times,serif" font-size="14.00">output:</text>
<polyline fill="none" stroke="black" points="271.5,-1328.5 271.5,-1374.5 "/>
<text text-anchor="middle" x="349" y="-1359.3" font-family="Times,serif" font-size="14.00">(None, 56, 56, 256)</text>
<polyline fill="none" stroke="black" points="271.5,-1351.5 426.5,-1351.5 "/>
<text text-anchor="middle" x="349" y="-1336.3" font-family="Times,serif" font-size="14.00">(None, 56, 56, 256)</text>
</g>
<!-- 139766510535400&#45;&gt;139766510537472 -->
<g id="edge9" class="edge">
<title>139766510535400&#45;&gt;139766510537472</title>
<path fill="none" stroke="black" d="M226.5,-1411.37C226.5,-1403.15 226.5,-1393.66 226.5,-1384.73"/>
<polygon fill="black" stroke="black" points="230,-1384.61 226.5,-1374.61 223,-1384.61 230,-1384.61"/>
</g>
<!-- 139766510596280 -->
<g id="node11" class="node">
<title>139766510596280</title>
<polygon fill="none" stroke="black" points="26.5,-1245.5 26.5,-1291.5 426.5,-1291.5 426.5,-1245.5 26.5,-1245.5"/>
<text text-anchor="middle" x="115" y="-1264.8" font-family="Times,serif" font-size="14.00">block3_conv4: Conv2D</text>
<polyline fill="none" stroke="black" points="203.5,-1245.5 203.5,-1291.5 "/>
<text text-anchor="middle" x="237.5" y="-1276.3" font-family="Times,serif" font-size="14.00">input:</text>
<polyline fill="none" stroke="black" points="203.5,-1268.5 271.5,-1268.5 "/>
<text text-anchor="middle" x="237.5" y="-1253.3" font-family="Times,serif" font-size="14.00">output:</text>
<polyline fill="none" stroke="black" points="271.5,-1245.5 271.5,-1291.5 "/>
<text text-anchor="middle" x="349" y="-1276.3" font-family="Times,serif" font-size="14.00">(None, 56, 56, 256)</text>
<polyline fill="none" stroke="black" points="271.5,-1268.5 426.5,-1268.5 "/>
<text text-anchor="middle" x="349" y="-1253.3" font-family="Times,serif" font-size="14.00">(None, 56, 56, 256)</text>
</g>
<!-- 139766510537472&#45;&gt;139766510596280 -->
<g id="edge10" class="edge">
<title>139766510537472&#45;&gt;139766510596280</title>
<path fill="none" stroke="black" d="M226.5,-1328.37C226.5,-1320.15 226.5,-1310.66 226.5,-1301.73"/>
<polygon fill="black" stroke="black" points="230,-1301.61 226.5,-1291.61 223,-1301.61 230,-1301.61"/>
</g>
<!-- 139766510210576 -->
<g id="node12" class="node">
<title>139766510210576</title>
<polygon fill="none" stroke="black" points="9,-1162.5 9,-1208.5 444,-1208.5 444,-1162.5 9,-1162.5"/>
<text text-anchor="middle" x="115" y="-1181.8" font-family="Times,serif" font-size="14.00">block3_pool: MaxPooling2D</text>
<polyline fill="none" stroke="black" points="221,-1162.5 221,-1208.5 "/>
<text text-anchor="middle" x="255" y="-1193.3" font-family="Times,serif" font-size="14.00">input:</text>
<polyline fill="none" stroke="black" points="221,-1185.5 289,-1185.5 "/>
<text text-anchor="middle" x="255" y="-1170.3" font-family="Times,serif" font-size="14.00">output:</text>
<polyline fill="none" stroke="black" points="289,-1162.5 289,-1208.5 "/>
<text text-anchor="middle" x="366.5" y="-1193.3" font-family="Times,serif" font-size="14.00">(None, 56, 56, 256)</text>
<polyline fill="none" stroke="black" points="289,-1185.5 444,-1185.5 "/>
<text text-anchor="middle" x="366.5" y="-1170.3" font-family="Times,serif" font-size="14.00">(None, 28, 28, 256)</text>
</g>
<!-- 139766510596280&#45;&gt;139766510210576 -->
<g id="edge11" class="edge">
<title>139766510596280&#45;&gt;139766510210576</title>
<path fill="none" stroke="black" d="M226.5,-1245.37C226.5,-1237.15 226.5,-1227.66 226.5,-1218.73"/>
<polygon fill="black" stroke="black" points="230,-1218.61 226.5,-1208.61 223,-1218.61 230,-1218.61"/>
</g>
<!-- 139766510275552 -->
<g id="node13" class="node">
<title>139766510275552</title>
<polygon fill="none" stroke="black" points="26.5,-1079.5 26.5,-1125.5 426.5,-1125.5 426.5,-1079.5 26.5,-1079.5"/>
<text text-anchor="middle" x="115" y="-1098.8" font-family="Times,serif" font-size="14.00">block4_conv1: Conv2D</text>
<polyline fill="none" stroke="black" points="203.5,-1079.5 203.5,-1125.5 "/>
<text text-anchor="middle" x="237.5" y="-1110.3" font-family="Times,serif" font-size="14.00">input:</text>
<polyline fill="none" stroke="black" points="203.5,-1102.5 271.5,-1102.5 "/>
<text text-anchor="middle" x="237.5" y="-1087.3" font-family="Times,serif" font-size="14.00">output:</text>
<polyline fill="none" stroke="black" points="271.5,-1079.5 271.5,-1125.5 "/>
<text text-anchor="middle" x="349" y="-1110.3" font-family="Times,serif" font-size="14.00">(None, 28, 28, 256)</text>
<polyline fill="none" stroke="black" points="271.5,-1102.5 426.5,-1102.5 "/>
<text text-anchor="middle" x="349" y="-1087.3" font-family="Times,serif" font-size="14.00">(None, 28, 28, 512)</text>
</g>
<!-- 139766510210576&#45;&gt;139766510275552 -->
<g id="edge12" class="edge">
<title>139766510210576&#45;&gt;139766510275552</title>
<path fill="none" stroke="black" d="M226.5,-1162.37C226.5,-1154.15 226.5,-1144.66 226.5,-1135.73"/>
<polygon fill="black" stroke="black" points="230,-1135.61 226.5,-1125.61 223,-1135.61 230,-1135.61"/>
</g>
<!-- 139766510399104 -->
<g id="node14" class="node">
<title>139766510399104</title>
<polygon fill="none" stroke="black" points="26.5,-996.5 26.5,-1042.5 426.5,-1042.5 426.5,-996.5 26.5,-996.5"/>
<text text-anchor="middle" x="115" y="-1015.8" font-family="Times,serif" font-size="14.00">block4_conv2: Conv2D</text>
<polyline fill="none" stroke="black" points="203.5,-996.5 203.5,-1042.5 "/>
<text text-anchor="middle" x="237.5" y="-1027.3" font-family="Times,serif" font-size="14.00">input:</text>
<polyline fill="none" stroke="black" points="203.5,-1019.5 271.5,-1019.5 "/>
<text text-anchor="middle" x="237.5" y="-1004.3" font-family="Times,serif" font-size="14.00">output:</text>
<polyline fill="none" stroke="black" points="271.5,-996.5 271.5,-1042.5 "/>
<text text-anchor="middle" x="349" y="-1027.3" font-family="Times,serif" font-size="14.00">(None, 28, 28, 512)</text>
<polyline fill="none" stroke="black" points="271.5,-1019.5 426.5,-1019.5 "/>
<text text-anchor="middle" x="349" y="-1004.3" font-family="Times,serif" font-size="14.00">(None, 28, 28, 512)</text>
</g>
<!-- 139766510275552&#45;&gt;139766510399104 -->
<g id="edge13" class="edge">
<title>139766510275552&#45;&gt;139766510399104</title>
<path fill="none" stroke="black" d="M226.5,-1079.37C226.5,-1071.15 226.5,-1061.66 226.5,-1052.73"/>
<polygon fill="black" stroke="black" points="230,-1052.61 226.5,-1042.61 223,-1052.61 230,-1052.61"/>
</g>
<!-- 139766509940864 -->
<g id="node15" class="node">
<title>139766509940864</title>
<polygon fill="none" stroke="black" points="26.5,-913.5 26.5,-959.5 426.5,-959.5 426.5,-913.5 26.5,-913.5"/>
<text text-anchor="middle" x="115" y="-932.8" font-family="Times,serif" font-size="14.00">block4_conv3: Conv2D</text>
<polyline fill="none" stroke="black" points="203.5,-913.5 203.5,-959.5 "/>
<text text-anchor="middle" x="237.5" y="-944.3" font-family="Times,serif" font-size="14.00">input:</text>
<polyline fill="none" stroke="black" points="203.5,-936.5 271.5,-936.5 "/>
<text text-anchor="middle" x="237.5" y="-921.3" font-family="Times,serif" font-size="14.00">output:</text>
<polyline fill="none" stroke="black" points="271.5,-913.5 271.5,-959.5 "/>
<text text-anchor="middle" x="349" y="-944.3" font-family="Times,serif" font-size="14.00">(None, 28, 28, 512)</text>
<polyline fill="none" stroke="black" points="271.5,-936.5 426.5,-936.5 "/>
<text text-anchor="middle" x="349" y="-921.3" font-family="Times,serif" font-size="14.00">(None, 28, 28, 512)</text>
</g>
<!-- 139766510399104&#45;&gt;139766509940864 -->
<g id="edge14" class="edge">
<title>139766510399104&#45;&gt;139766509940864</title>
<path fill="none" stroke="black" d="M226.5,-996.37C226.5,-988.15 226.5,-978.66 226.5,-969.73"/>
<polygon fill="black" stroke="black" points="230,-969.61 226.5,-959.61 223,-969.61 230,-969.61"/>
</g>
<!-- 139766510000504 -->
<g id="node16" class="node">
<title>139766510000504</title>
<polygon fill="none" stroke="black" points="26.5,-830.5 26.5,-876.5 426.5,-876.5 426.5,-830.5 26.5,-830.5"/>
<text text-anchor="middle" x="115" y="-849.8" font-family="Times,serif" font-size="14.00">block4_conv4: Conv2D</text>
<polyline fill="none" stroke="black" points="203.5,-830.5 203.5,-876.5 "/>
<text text-anchor="middle" x="237.5" y="-861.3" font-family="Times,serif" font-size="14.00">input:</text>
<polyline fill="none" stroke="black" points="203.5,-853.5 271.5,-853.5 "/>
<text text-anchor="middle" x="237.5" y="-838.3" font-family="Times,serif" font-size="14.00">output:</text>
<polyline fill="none" stroke="black" points="271.5,-830.5 271.5,-876.5 "/>
<text text-anchor="middle" x="349" y="-861.3" font-family="Times,serif" font-size="14.00">(None, 28, 28, 512)</text>
<polyline fill="none" stroke="black" points="271.5,-853.5 426.5,-853.5 "/>
<text text-anchor="middle" x="349" y="-838.3" font-family="Times,serif" font-size="14.00">(None, 28, 28, 512)</text>
</g>
<!-- 139766509940864&#45;&gt;139766510000504 -->
<g id="edge15" class="edge">
<title>139766509940864&#45;&gt;139766510000504</title>
<path fill="none" stroke="black" d="M226.5,-913.37C226.5,-905.15 226.5,-895.66 226.5,-886.73"/>
<polygon fill="black" stroke="black" points="230,-886.61 226.5,-876.61 223,-886.61 230,-886.61"/>
</g>
<!-- 139766510065648 -->
<g id="node17" class="node">
<title>139766510065648</title>
<polygon fill="none" stroke="black" points="9,-747.5 9,-793.5 444,-793.5 444,-747.5 9,-747.5"/>
<text text-anchor="middle" x="115" y="-766.8" font-family="Times,serif" font-size="14.00">block4_pool: MaxPooling2D</text>
<polyline fill="none" stroke="black" points="221,-747.5 221,-793.5 "/>
<text text-anchor="middle" x="255" y="-778.3" font-family="Times,serif" font-size="14.00">input:</text>
<polyline fill="none" stroke="black" points="221,-770.5 289,-770.5 "/>
<text text-anchor="middle" x="255" y="-755.3" font-family="Times,serif" font-size="14.00">output:</text>
<polyline fill="none" stroke="black" points="289,-747.5 289,-793.5 "/>
<text text-anchor="middle" x="366.5" y="-778.3" font-family="Times,serif" font-size="14.00">(None, 28, 28, 512)</text>
<polyline fill="none" stroke="black" points="289,-770.5 444,-770.5 "/>
<text text-anchor="middle" x="366.5" y="-755.3" font-family="Times,serif" font-size="14.00">(None, 14, 14, 512)</text>
</g>
<!-- 139766510000504&#45;&gt;139766510065648 -->
<g id="edge16" class="edge">
<title>139766510000504&#45;&gt;139766510065648</title>
<path fill="none" stroke="black" d="M226.5,-830.37C226.5,-822.15 226.5,-812.66 226.5,-803.73"/>
<polygon fill="black" stroke="black" points="230,-803.61 226.5,-793.61 223,-803.61 230,-803.61"/>
</g>
<!-- 139766509662280 -->
<g id="node18" class="node">
<title>139766509662280</title>
<polygon fill="none" stroke="black" points="26.5,-664.5 26.5,-710.5 426.5,-710.5 426.5,-664.5 26.5,-664.5"/>
<text text-anchor="middle" x="115" y="-683.8" font-family="Times,serif" font-size="14.00">block5_conv1: Conv2D</text>
<polyline fill="none" stroke="black" points="203.5,-664.5 203.5,-710.5 "/>
<text text-anchor="middle" x="237.5" y="-695.3" font-family="Times,serif" font-size="14.00">input:</text>
<polyline fill="none" stroke="black" points="203.5,-687.5 271.5,-687.5 "/>
<text text-anchor="middle" x="237.5" y="-672.3" font-family="Times,serif" font-size="14.00">output:</text>
<polyline fill="none" stroke="black" points="271.5,-664.5 271.5,-710.5 "/>
<text text-anchor="middle" x="349" y="-695.3" font-family="Times,serif" font-size="14.00">(None, 14, 14, 512)</text>
<polyline fill="none" stroke="black" points="271.5,-687.5 426.5,-687.5 "/>
<text text-anchor="middle" x="349" y="-672.3" font-family="Times,serif" font-size="14.00">(None, 14, 14, 512)</text>
</g>
<!-- 139766510065648&#45;&gt;139766509662280 -->
<g id="edge17" class="edge">
<title>139766510065648&#45;&gt;139766509662280</title>
<path fill="none" stroke="black" d="M226.5,-747.37C226.5,-739.15 226.5,-729.66 226.5,-720.73"/>
<polygon fill="black" stroke="black" points="230,-720.61 226.5,-710.61 223,-720.61 230,-720.61"/>
</g>
<!-- 139766509736680 -->
<g id="node19" class="node">
<title>139766509736680</title>
<polygon fill="none" stroke="black" points="26.5,-581.5 26.5,-627.5 426.5,-627.5 426.5,-581.5 26.5,-581.5"/>
<text text-anchor="middle" x="115" y="-600.8" font-family="Times,serif" font-size="14.00">block5_conv2: Conv2D</text>
<polyline fill="none" stroke="black" points="203.5,-581.5 203.5,-627.5 "/>
<text text-anchor="middle" x="237.5" y="-612.3" font-family="Times,serif" font-size="14.00">input:</text>
<polyline fill="none" stroke="black" points="203.5,-604.5 271.5,-604.5 "/>
<text text-anchor="middle" x="237.5" y="-589.3" font-family="Times,serif" font-size="14.00">output:</text>
<polyline fill="none" stroke="black" points="271.5,-581.5 271.5,-627.5 "/>
<text text-anchor="middle" x="349" y="-612.3" font-family="Times,serif" font-size="14.00">(None, 14, 14, 512)</text>
<polyline fill="none" stroke="black" points="271.5,-604.5 426.5,-604.5 "/>
<text text-anchor="middle" x="349" y="-589.3" font-family="Times,serif" font-size="14.00">(None, 14, 14, 512)</text>
</g>
<!-- 139766509662280&#45;&gt;139766509736680 -->
<g id="edge18" class="edge">
<title>139766509662280&#45;&gt;139766509736680</title>
<path fill="none" stroke="black" d="M226.5,-664.37C226.5,-656.15 226.5,-646.66 226.5,-637.73"/>
<polygon fill="black" stroke="black" points="230,-637.61 226.5,-627.61 223,-637.61 230,-637.61"/>
</g>
<!-- 139766509802664 -->
<g id="node20" class="node">
<title>139766509802664</title>
<polygon fill="none" stroke="black" points="26.5,-498.5 26.5,-544.5 426.5,-544.5 426.5,-498.5 26.5,-498.5"/>
<text text-anchor="middle" x="115" y="-517.8" font-family="Times,serif" font-size="14.00">block5_conv3: Conv2D</text>
<polyline fill="none" stroke="black" points="203.5,-498.5 203.5,-544.5 "/>
<text text-anchor="middle" x="237.5" y="-529.3" font-family="Times,serif" font-size="14.00">input:</text>
<polyline fill="none" stroke="black" points="203.5,-521.5 271.5,-521.5 "/>
<text text-anchor="middle" x="237.5" y="-506.3" font-family="Times,serif" font-size="14.00">output:</text>
<polyline fill="none" stroke="black" points="271.5,-498.5 271.5,-544.5 "/>
<text text-anchor="middle" x="349" y="-529.3" font-family="Times,serif" font-size="14.00">(None, 14, 14, 512)</text>
<polyline fill="none" stroke="black" points="271.5,-521.5 426.5,-521.5 "/>
<text text-anchor="middle" x="349" y="-506.3" font-family="Times,serif" font-size="14.00">(None, 14, 14, 512)</text>
</g>
<!-- 139766509736680&#45;&gt;139766509802664 -->
<g id="edge19" class="edge">
<title>139766509736680&#45;&gt;139766509802664</title>
<path fill="none" stroke="black" d="M226.5,-581.37C226.5,-573.15 226.5,-563.66 226.5,-554.73"/>
<polygon fill="black" stroke="black" points="230,-554.61 226.5,-544.61 223,-554.61 230,-554.61"/>
</g>
<!-- 139766509862248 -->
<g id="node21" class="node">
<title>139766509862248</title>
<polygon fill="none" stroke="black" points="26.5,-415.5 26.5,-461.5 426.5,-461.5 426.5,-415.5 26.5,-415.5"/>
<text text-anchor="middle" x="115" y="-434.8" font-family="Times,serif" font-size="14.00">block5_conv4: Conv2D</text>
<polyline fill="none" stroke="black" points="203.5,-415.5 203.5,-461.5 "/>
<text text-anchor="middle" x="237.5" y="-446.3" font-family="Times,serif" font-size="14.00">input:</text>
<polyline fill="none" stroke="black" points="203.5,-438.5 271.5,-438.5 "/>
<text text-anchor="middle" x="237.5" y="-423.3" font-family="Times,serif" font-size="14.00">output:</text>
<polyline fill="none" stroke="black" points="271.5,-415.5 271.5,-461.5 "/>
<text text-anchor="middle" x="349" y="-446.3" font-family="Times,serif" font-size="14.00">(None, 14, 14, 512)</text>
<polyline fill="none" stroke="black" points="271.5,-438.5 426.5,-438.5 "/>
<text text-anchor="middle" x="349" y="-423.3" font-family="Times,serif" font-size="14.00">(None, 14, 14, 512)</text>
</g>
<!-- 139766509802664&#45;&gt;139766509862248 -->
<g id="edge20" class="edge">
<title>139766509802664&#45;&gt;139766509862248</title>
<path fill="none" stroke="black" d="M226.5,-498.37C226.5,-490.15 226.5,-480.66 226.5,-471.73"/>
<polygon fill="black" stroke="black" points="230,-471.61 226.5,-461.61 223,-471.61 230,-471.61"/>
</g>
<!-- 139766509400136 -->
<g id="node22" class="node">
<title>139766509400136</title>
<polygon fill="none" stroke="black" points="9,-332.5 9,-378.5 444,-378.5 444,-332.5 9,-332.5"/>
<text text-anchor="middle" x="115" y="-351.8" font-family="Times,serif" font-size="14.00">block5_pool: MaxPooling2D</text>
<polyline fill="none" stroke="black" points="221,-332.5 221,-378.5 "/>
<text text-anchor="middle" x="255" y="-363.3" font-family="Times,serif" font-size="14.00">input:</text>
<polyline fill="none" stroke="black" points="221,-355.5 289,-355.5 "/>
<text text-anchor="middle" x="255" y="-340.3" font-family="Times,serif" font-size="14.00">output:</text>
<polyline fill="none" stroke="black" points="289,-332.5 289,-378.5 "/>
<text text-anchor="middle" x="366.5" y="-363.3" font-family="Times,serif" font-size="14.00">(None, 14, 14, 512)</text>
<polyline fill="none" stroke="black" points="289,-355.5 444,-355.5 "/>
<text text-anchor="middle" x="366.5" y="-340.3" font-family="Times,serif" font-size="14.00">(None, 7, 7, 512)</text>
</g>
<!-- 139766509862248&#45;&gt;139766509400136 -->
<g id="edge21" class="edge">
<title>139766509862248&#45;&gt;139766509400136</title>
<path fill="none" stroke="black" d="M226.5,-415.37C226.5,-407.15 226.5,-397.66 226.5,-388.73"/>
<polygon fill="black" stroke="black" points="230,-388.61 226.5,-378.61 223,-388.61 230,-388.61"/>
</g>
<!-- 139766509523968 -->
<g id="node23" class="node">
<title>139766509523968</title>
<polygon fill="none" stroke="black" points="62,-249.5 62,-295.5 391,-295.5 391,-249.5 62,-249.5"/>
<text text-anchor="middle" x="124" y="-268.8" font-family="Times,serif" font-size="14.00">flatten: Flatten</text>
<polyline fill="none" stroke="black" points="186,-249.5 186,-295.5 "/>
<text text-anchor="middle" x="220" y="-280.3" font-family="Times,serif" font-size="14.00">input:</text>
<polyline fill="none" stroke="black" points="186,-272.5 254,-272.5 "/>
<text text-anchor="middle" x="220" y="-257.3" font-family="Times,serif" font-size="14.00">output:</text>
<polyline fill="none" stroke="black" points="254,-249.5 254,-295.5 "/>
<text text-anchor="middle" x="322.5" y="-280.3" font-family="Times,serif" font-size="14.00">(None, 7, 7, 512)</text>
<polyline fill="none" stroke="black" points="254,-272.5 391,-272.5 "/>
<text text-anchor="middle" x="322.5" y="-257.3" font-family="Times,serif" font-size="14.00">(None, 25088)</text>
</g>
<!-- 139766509400136&#45;&gt;139766509523968 -->
<g id="edge22" class="edge">
<title>139766509400136&#45;&gt;139766509523968</title>
<path fill="none" stroke="black" d="M226.5,-332.37C226.5,-324.15 226.5,-314.66 226.5,-305.73"/>
<polygon fill="black" stroke="black" points="230,-305.61 226.5,-295.61 223,-305.61 230,-305.61"/>
</g>
<!-- 139766509597696 -->
<g id="node24" class="node">
<title>139766509597696</title>
<polygon fill="none" stroke="black" points="87,-166.5 87,-212.5 366,-212.5 366,-166.5 87,-166.5"/>
<text text-anchor="middle" x="133" y="-185.8" font-family="Times,serif" font-size="14.00">fc1: Dense</text>
<polyline fill="none" stroke="black" points="179,-166.5 179,-212.5 "/>
<text text-anchor="middle" x="213" y="-197.3" font-family="Times,serif" font-size="14.00">input:</text>
<polyline fill="none" stroke="black" points="179,-189.5 247,-189.5 "/>
<text text-anchor="middle" x="213" y="-174.3" font-family="Times,serif" font-size="14.00">output:</text>
<polyline fill="none" stroke="black" points="247,-166.5 247,-212.5 "/>
<text text-anchor="middle" x="306.5" y="-197.3" font-family="Times,serif" font-size="14.00">(None, 25088)</text>
<polyline fill="none" stroke="black" points="247,-189.5 366,-189.5 "/>
<text text-anchor="middle" x="306.5" y="-174.3" font-family="Times,serif" font-size="14.00">(None, 4096)</text>
</g>
<!-- 139766509523968&#45;&gt;139766509597696 -->
<g id="edge23" class="edge">
<title>139766509523968&#45;&gt;139766509597696</title>
<path fill="none" stroke="black" d="M226.5,-249.37C226.5,-241.15 226.5,-231.66 226.5,-222.73"/>
<polygon fill="black" stroke="black" points="230,-222.61 226.5,-212.61 223,-222.61 230,-222.61"/>
</g>
<!-- 139766509137592 -->
<g id="node25" class="node">
<title>139766509137592</title>
<polygon fill="none" stroke="black" points="91.5,-83.5 91.5,-129.5 361.5,-129.5 361.5,-83.5 91.5,-83.5"/>
<text text-anchor="middle" x="137.5" y="-102.8" font-family="Times,serif" font-size="14.00">fc2: Dense</text>
<polyline fill="none" stroke="black" points="183.5,-83.5 183.5,-129.5 "/>
<text text-anchor="middle" x="217.5" y="-114.3" font-family="Times,serif" font-size="14.00">input:</text>
<polyline fill="none" stroke="black" points="183.5,-106.5 251.5,-106.5 "/>
<text text-anchor="middle" x="217.5" y="-91.3" font-family="Times,serif" font-size="14.00">output:</text>
<polyline fill="none" stroke="black" points="251.5,-83.5 251.5,-129.5 "/>
<text text-anchor="middle" x="306.5" y="-114.3" font-family="Times,serif" font-size="14.00">(None, 4096)</text>
<polyline fill="none" stroke="black" points="251.5,-106.5 361.5,-106.5 "/>
<text text-anchor="middle" x="306.5" y="-91.3" font-family="Times,serif" font-size="14.00">(None, 4096)</text>
</g>
<!-- 139766509597696&#45;&gt;139766509137592 -->
<g id="edge24" class="edge">
<title>139766509597696&#45;&gt;139766509137592</title>
<path fill="none" stroke="black" d="M226.5,-166.37C226.5,-158.15 226.5,-148.66 226.5,-139.73"/>
<polygon fill="black" stroke="black" points="230,-139.61 226.5,-129.61 223,-139.61 230,-139.61"/>
</g>
<!-- 139766509199312 -->
<g id="node26" class="node">
<title>139766509199312</title>
<polygon fill="none" stroke="black" points="62.5,-0.5 62.5,-46.5 390.5,-46.5 390.5,-0.5 62.5,-0.5"/>
<text text-anchor="middle" x="137.5" y="-19.8" font-family="Times,serif" font-size="14.00">predictions: Dense</text>
<polyline fill="none" stroke="black" points="212.5,-0.5 212.5,-46.5 "/>
<text text-anchor="middle" x="246.5" y="-31.3" font-family="Times,serif" font-size="14.00">input:</text>
<polyline fill="none" stroke="black" points="212.5,-23.5 280.5,-23.5 "/>
<text text-anchor="middle" x="246.5" y="-8.3" font-family="Times,serif" font-size="14.00">output:</text>
<polyline fill="none" stroke="black" points="280.5,-0.5 280.5,-46.5 "/>
<text text-anchor="middle" x="335.5" y="-31.3" font-family="Times,serif" font-size="14.00">(None, 4096)</text>
<polyline fill="none" stroke="black" points="280.5,-23.5 390.5,-23.5 "/>
<text text-anchor="middle" x="335.5" y="-8.3" font-family="Times,serif" font-size="14.00">(None, 1000)</text>
</g>
<!-- 139766509137592&#45;&gt;139766509199312 -->
<g id="edge25" class="edge">
<title>139766509137592&#45;&gt;139766509199312</title>
<path fill="none" stroke="black" d="M226.5,-83.37C226.5,-75.15 226.5,-65.66 226.5,-56.73"/>
<polygon fill="black" stroke="black" points="230,-56.61 226.5,-46.61 223,-56.61 230,-56.61"/>
</g>
</g>
</svg>
